<svg xmlns="http://www.w3.org/2000/svg" xmlns:xlink="http://www.w3.org/1999/xlink" xmlns:inkscape="http://www.inkscape.org/namespaces/inkscape" version="1.1" width="64" height="64" viewBox="0 0 64 64">
<defs>
<path id="font_1_54" d="M.28076173-.01953125C.24235027-.01953125 .20369466-.014714559 .16479492-.0050811769 .12589519 .0045420329 .091796878 .017649332 .0625 .034240724L.020507813 0H-.020996094L.030761719 .25097657H.072753909C.076660159 .2264506 .08382162 .20102437 .09423828 .17469788 .104654949 .14838155 .11816406 .124923709 .13476563 .10432434 .15104167 .08307394 .17171224 .06541952 .19677735 .051361085 .22184246 .037302656 .25048829 .030273438 .28271485 .030273438 .32991538 .030273438 .36767579 .041732789 .3959961 .06465149 .4243164 .08758036 .43847657 .117741908 .43847657 .15513611 .43847657 .17927552 .43041993 .20047505 .41430665 .21873474 .39819337 .2370046 .37223307 .25266014 .33642579 .2657013 .3136393 .27385966 .2915853 .2817688 .27026368 .2894287 .24894206 .2970988 .22867839 .30501304 .20947266 .3131714 .17138672 .32915244 .14274089 .3518982 .123535159 .3814087 .10432943 .41092936 .09472656 .44232688 .09472656 .4756012 .09472656 .50626119 .10172526 .5356954 .115722659 .5639038 .12972005 .5921224 .14990235 .61731979 .17626953 .63949587 .20198567 .6613566 .23380535 .678889 .27172853 .6920929 .3096517 .705307 .35123698 .71191409 .39648438 .71191409 .43424479 .71191409 .4716797 .7064616 .50878909 .69555667 .54589846 .6846517 .5732422 .6741536 .5908203 .6640625L.6274414 .6933594H.6699219L.6191406 .45703126H.57714846C.5729167 .48470054 .5668132 .5107422 .5588379 .53515627 .5508626 .5595703 .5398763 .58154299 .5258789 .6010742 .51220706 .6199544 .49519859 .63500979 .47485353 .64624026 .45450846 .6574707 .43001304 .66308596 .4013672 .66308596 .36165367 .66308596 .3285319 .6519826 .30200196 .629776 .27547203 .6075795 .26220704 .5796712 .26220704 .546051 .26220704 .5225627 .27018229 .50201418 .2861328 .48440553 .30208335 .46679688 .3273112 .4514669 .3618164 .43841554 .3819987 .43091838 .40315757 .423172 .42529298 .4151764 .44742839 .4071808 .46858726 .39894615 .48876954 .3904724 .52652999 .3748169 .5563151 .35353089 .578125 .32661439 .5999349 .29970805 .61083987 .26782737 .61083987 .23097229 .61083987 .19607036 .60286459 .16328939 .58691409 .1326294 .57096359 .1019694 .54866537 .07555135 .52001956 .053375246 .4897461 .02988688 .4544271 .011866252 .4140625-.0006866455 .3736979-.013249715 .3292643-.01953125 .28076173-.01953125Z"/>
</defs>
<path transform="matrix(1,0,0,-1,0,64)" d="M3 37C3 23.74517 13.74517 13 27 13 40.25483 13 51 23.74517 51 37 51 50.25483 40.25483 61 27 61 13.74517 61 3 50.25483 3 37Z" fill="#f7f7ef"/>
<path transform="matrix(1,0,0,-1,0,64)" stroke-width="1" stroke-linecap="butt" stroke-miterlimit="10" stroke-linejoin="miter" fill="none" stroke="#287c72" d="M3 37C3 23.74517 13.74517 13 27 13 40.25483 13 51 23.74517 51 37 51 50.25483 40.25483 61 27 61 13.74517 61 3 50.25483 3 37Z"/>
<use data-text="S" xlink:href="#font_1_54" transform="matrix(35,0,0,-35,14,39)" fill="#163d39"/>
<path transform="matrix(1,0,0,-1,0,64)" d="M39 1H63V25H39Z" fill="#f7f7ef"/>
<path transform="matrix(1,0,0,-1,0,64)" stroke-width="2" stroke-linecap="butt" stroke-miterlimit="10" stroke-linejoin="miter" fill="none" stroke="#163d39" d="M40 14H60"/>
<path transform="matrix(1,0,0,-1,0,64)" stroke-width="2" stroke-linecap="butt" stroke-miterlimit="10" stroke-linejoin="miter" fill="none" stroke="#163d39" d="M50 24V4"/>
<path transform="matrix(1,0,0,-1,0,64)" stroke-width="2" stroke-linecap="butt" stroke-miterlimit="10" stroke-linejoin="miter" fill="none" stroke="#163d39" d="M43 21 57 7"/>
<path transform="matrix(1,0,0,-1,0,64)" stroke-width="2" stroke-linecap="butt" stroke-miterlimit="10" stroke-linejoin="miter" fill="none" stroke="#163d39" d="M43 7 57 21"/>
<path transform="matrix(1,0,0,-1,0,64)" d="M48.5 14C48.5 13.17157 49.17157 12.5 50 12.5 50.82843 12.5 51.5 13.17157 51.5 14 51.5 14.82843 50.82843 15.5 50 15.5 49.17157 15.5 48.5 14.82843 48.5 14Z" fill="#163d39"/>
</svg>
